<svg width="12" height="12" viewBox="0 0 12 12" fill="none" xmlns="http://www.w3.org/2000/svg">
<path d="M0.90625 9.30859C0.523438 9.68359 0.507812 10.3711 0.914062 10.7695C1.3125 11.168 2 11.1523 2.375 10.7773L6 7.15234L9.625 10.7695C10.0156 11.1602 10.6875 11.168 11.0859 10.7617C11.4844 10.3633 11.4844 9.69141 11.0938 9.30078L7.46875 5.68359L11.0938 2.05859C11.4844 1.66797 11.4844 0.996094 11.0859 0.597656C10.6875 0.191406 10.0156 0.199219 9.625 0.589844L6 4.20703L2.375 0.582031C2 0.207031 1.3125 0.191406 0.914062 0.589844C0.507812 0.988281 0.523438 1.67578 0.90625 2.05859L4.53125 5.68359L0.90625 9.30859Z" fill="#1C1A19"/>
</svg>
