<svg width="43" height="42" viewBox="0 0 43 42" fill="none" xmlns="http://www.w3.org/2000/svg">
<rect width="43" height="42" rx="10" fill="#F67952" fill-opacity="0.07"/>
<path fill-rule="evenodd" clip-rule="evenodd" d="M26.9394 12C28.2804 12 29.5704 12.53 30.5194 13.481C31.4694 14.43 32.0004 15.71 32.0004 17.05V24.95C32.0004 27.74 29.7304 30 26.9394 30H17.0604C14.2694 30 12.0004 27.74 12.0004 24.95V17.05C12.0004 14.26 14.2594 12 17.0604 12H26.9394ZM28.5304 18.54L28.6104 18.46C28.8494 18.17 28.8494 17.75 28.5994 17.46C28.4604 17.311 28.2694 17.22 28.0704 17.2C27.8604 17.189 27.6604 17.26 27.5094 17.4L23.0004 21C22.4204 21.481 21.5894 21.481 21.0004 21L16.5004 17.4C16.1894 17.17 15.7594 17.2 15.5004 17.47C15.2304 17.74 15.2004 18.17 15.4294 18.47L15.5604 18.6L20.1104 22.15C20.6704 22.59 21.3494 22.83 22.0604 22.83C22.7694 22.83 23.4604 22.59 24.0194 22.15L28.5304 18.54Z" fill="#F67952"/>
</svg>
