<svg width="43" height="42" viewBox="0 0 43 42" fill="none" xmlns="http://www.w3.org/2000/svg">
<rect width="43" height="42" rx="10" fill="#F67952" fill-opacity="0.07"/>
<path d="M26.34 10.9998H17.67C14.28 10.9998 12 13.3798 12 16.9198V25.0898C12 28.6198 14.28 30.9998 17.67 30.9998H26.34C29.73 30.9998 32 28.6198 32 25.0898V16.9198C32 13.3798 29.73 10.9998 26.34 10.9998Z" fill="#F67952"/>
<path d="M21.7445 24.0167H22.9075V25.1797H21.7445V24.0167Z" fill="white"/>
<path d="M23.489 19.326C23.489 19.6562 23.3545 19.9611 23.1104 20.1844L21.7445 21.4347V22.8537H22.9075V21.9468L23.8956 21.0424C24.3762 20.6025 24.652 19.977 24.652 19.326C24.652 18.0434 23.6086 17 22.326 17C21.0434 17 20 18.0434 20 19.326H21.163C21.163 18.6847 21.6847 18.163 22.326 18.163C22.9673 18.163 23.489 18.6847 23.489 19.326Z" fill="white"/>
</svg>
