<svg width="16" height="15" viewBox="0 0 16 15" fill="none" xmlns="http://www.w3.org/2000/svg">
<path d="M1.65585 6.34625H11.3098L7.53942 2.60631C7.09853 2.15022 7.09853 1.43568 7.53942 0.979591C7.9803 0.538704 8.71005 0.538704 9.15094 0.979591L14.8825 6.68072C15.3082 7.10641 15.3082 7.86656 14.8825 8.29224L9.15094 13.9934C8.71005 14.4343 7.9803 14.4343 7.53942 13.9934C7.32657 13.7653 7.20495 13.4749 7.20495 13.1876C7.20495 12.8988 7.32657 12.5947 7.53942 12.3819L11.3098 8.62671H1.65585C1.01732 8.62671 0.515625 8.12501 0.515625 7.48648C0.515625 6.86316 1.01732 6.34625 1.65585 6.34625Z" fill="#F67952"/>
</svg>
