<svg width="43" height="42" viewBox="0 0 43 42" fill="none" xmlns="http://www.w3.org/2000/svg">
<rect width="43" height="42" rx="10" fill="#F67952" fill-opacity="0.07"/>
<path fill-rule="evenodd" clip-rule="evenodd" d="M28.7071 17.7963C28.7071 19.0523 29.039 19.7925 29.7695 20.6456C30.3231 21.2741 30.5 22.0808 30.5 22.956C30.5 23.8302 30.2128 24.6601 29.6373 25.3339C28.884 26.1417 27.8215 26.6573 26.7372 26.747C25.1659 26.8809 23.5937 26.9937 22.0005 26.9937C20.4063 26.9937 18.835 26.9263 17.2638 26.747C16.1785 26.6573 15.116 26.1417 14.3637 25.3339C13.7882 24.6601 13.5 23.8302 13.5 22.956C13.5 22.0808 13.6779 21.2741 14.2305 20.6456C14.9838 19.7925 15.2939 19.0523 15.2939 17.7963V17.3703C15.2939 15.6883 15.7133 14.5885 16.577 13.5119C17.8611 11.9417 19.9194 11 21.9558 11H22.0452C24.1254 11 26.2502 11.987 27.5125 13.6247C28.3314 14.6792 28.7071 15.7327 28.7071 17.3703V17.7963ZM19.0737 29.0608C19.0737 28.5573 19.5358 28.3266 19.9632 28.2279C20.4631 28.1222 23.5093 28.1222 24.0092 28.2279C24.4366 28.3266 24.8987 28.5573 24.8987 29.0608C24.8738 29.5402 24.5926 29.9653 24.204 30.2352C23.7001 30.628 23.1088 30.8767 22.4906 30.9664C22.1487 31.0107 21.8128 31.0117 21.4828 30.9664C20.8636 30.8767 20.2723 30.628 19.7694 30.2342C19.3798 29.9653 19.0985 29.5402 19.0737 29.0608Z" fill="#F67952"/>
</svg>
