<svg width="43" height="42" viewBox="0 0 43 42" fill="none" xmlns="http://www.w3.org/2000/svg">
<rect width="43" height="42" rx="10" fill="#F67952" fill-opacity="0.07"/>
<path d="M26.34 10.9998H17.67C14.28 10.9998 12 13.3798 12 16.9198V25.0898C12 28.6198 14.28 30.9998 17.67 30.9998H26.34C29.73 30.9998 32 28.6198 32 25.0898V16.9198C32 13.3798 29.73 10.9998 26.34 10.9998Z" fill="#F67952"/>
<g clip-path="url(#clip0_64_77)">
<path d="M17.3903 21.0114C17.3903 22.553 18.1562 23.9158 19.3283 24.7398C19.5348 24.8851 19.5458 25.1868 19.3474 25.343L19.3418 25.3474C19.2123 25.4494 19.0306 25.4561 18.8957 25.3614C17.5274 24.4005 16.633 22.8103 16.633 21.0114C16.633 18.0935 19.0483 15.7247 21.9603 15.6998V16.4572C19.4662 16.482 17.3903 18.5115 17.3903 21.0114Z" fill="white"/>
<path d="M22.0993 15.0226L23.4909 15.9745C23.5654 16.0255 23.5654 16.1354 23.4909 16.1864L22.0993 17.1383C22.0141 17.1966 21.8984 17.1356 21.8984 17.0324V15.1286C21.8984 15.0254 22.0141 14.9644 22.0993 15.0226Z" fill="white"/>
<path d="M26.6027 20.9884C26.6027 19.4468 25.8367 18.084 24.6646 17.2599C24.4581 17.1147 24.4471 16.813 24.6455 16.6568L24.6511 16.6524C24.7806 16.5504 24.9623 16.5436 25.0972 16.6384C26.4656 17.5993 27.3599 19.1895 27.3599 20.9884C27.3599 23.9063 24.9487 26.2751 22.0366 26.3V25.5425C24.5307 25.5178 26.6027 23.4884 26.6027 20.9884Z" fill="white"/>
<path d="M21.8939 26.9772L20.5023 26.0253C20.4278 25.9743 20.4278 25.8644 20.5023 25.8134L21.8939 24.8615C21.979 24.8032 22.0948 24.8643 22.0948 24.9674V26.8712C22.0948 26.9745 21.979 27.0355 21.8939 26.9772Z" fill="white"/>
<path d="M24.3584 20.4098L22.0789 22.3002L21.5043 22.7768C21.3689 22.889 21.1975 22.9498 21.0232 22.9498C20.9941 22.9498 20.9651 22.9482 20.9358 22.9448C20.7325 22.9209 20.5453 22.8131 20.4226 22.6491L19.5362 21.4675C19.336 21.2006 19.3901 20.8218 19.6571 20.6213C19.9242 20.4212 20.3031 20.4753 20.5033 20.7422L21.1017 21.5401L21.1066 21.5362L23.5869 19.4792C23.8439 19.2662 24.2249 19.3017 24.438 19.5587C24.651 19.8157 24.6154 20.1968 24.3584 20.4098Z" fill="white"/>
<path d="M24.3585 20.4098L22.079 22.3002C21.7062 22.1141 21.3783 21.8568 21.1066 21.5362L23.587 19.4792C23.844 19.2662 24.225 19.3017 24.438 19.5587C24.6511 19.8157 24.6155 20.1968 24.3585 20.4098Z" fill="white"/>
</g>
<defs>
<clipPath id="clip0_64_77">
<rect width="12" height="12" fill="white" transform="translate(16 15)"/>
</clipPath>
</defs>
</svg>
